HIERARCHY
ROOT Hips
{
 OFFSET 0.000000 0.000000 0.000000
 CHANNELS 6 Xposition Yposition Zposition Yrotation Xrotation Zrotation
 JOINT Chest
 {
  OFFSET 0.000000 9.857222 0.000240
  CHANNELS 3 Yrotation Xrotation Zrotation
  JOINT Chest2
  {
   OFFSET 0.000000 10.876940 -0.000436
   CHANNELS 3 Yrotation Xrotation Zrotation
   JOINT Chest3
   {
    OFFSET 0.000000 9.827798 0.000000
    CHANNELS 3 Yrotation Xrotation Zrotation
    JOINT Chest4
    {
     OFFSET 0.000000 9.827798 0.000000
     CHANNELS 3 Yrotation Xrotation Zrotation
     JOINT Neck
     {
      OFFSET 0.000000 13.831992 0.000000
      CHANNELS 3 Yrotation Xrotation Zrotation
      JOINT Head
      {
       OFFSET 0.000000 9.147643 -0.001036
       CHANNELS 3 Yrotation Xrotation Zrotation
       End Site
       {
        OFFSET 0.000000 17.515799 -0.000541
       }
      }
     }
     JOINT RightCollar
     {
      OFFSET -3.001579 7.717577 0.000000
      CHANNELS 3 Yrotation Xrotation Zrotation
      JOINT RightShoulder
      {
       OFFSET -14.002642 0.000000 0.000000
       CHANNELS 3 Yrotation Xrotation Zrotation
       JOINT RightElbow
       {
        OFFSET -30.053852 0.000000 0.000000
        CHANNELS 3 Yrotation Xrotation Zrotation
        JOINT RightWrist
        {
         OFFSET -24.564923 0.000000 -0.000000
         CHANNELS 3 Yrotation Xrotation Zrotation
         End Site
         {
          OFFSET -18.334355 0.000000 0.000000
         }
        }
       }
      }
     }
     JOINT LeftCollar
     {
      OFFSET 3.001579 7.717577 0.000000
      CHANNELS 3 Yrotation Xrotation Zrotation
      JOINT LeftShoulder
      {
       OFFSET 14.002642 0.000000 0.000000
       CHANNELS 3 Yrotation Xrotation Zrotation
       JOINT LeftElbow
       {
        OFFSET 30.053852 0.000000 0.000000
        CHANNELS 3 Yrotation Xrotation Zrotation
        JOINT LeftWrist
        {
         OFFSET 24.564923 0.000000 -0.000000
         CHANNELS 3 Yrotation Xrotation Zrotation
         End Site
         {
          OFFSET 18.334355 0.000000 0.000000
         }
        }
       }
      }
     }
    }
   }
  }
 }
 JOINT RightHip
 {
  OFFSET -8.003235 -0.001175 -0.000120
  CHANNELS 3 Yrotation Xrotation Zrotation
  JOINT RightKnee
  {
   OFFSET 0.000000 -41.759727 0.000113
   CHANNELS 3 Yrotation Xrotation Zrotation
   JOINT RightAnkle
   {
    OFFSET 0.000000 -40.728748 0.000159
    CHANNELS 3 Yrotation Xrotation Zrotation
    JOINT RightToe
    {
     OFFSET 0.000000 -6.515296 14.732841
     CHANNELS 3 Yrotation Xrotation Zrotation
     End Site
     {
      OFFSET 0.000000 -1.502839 6.412115
     }
    }
   }
  }
 }
 JOINT LeftHip
 {
  OFFSET 8.003235 -0.001175 -0.000120
  CHANNELS 3 Yrotation Xrotation Zrotation
  JOINT LeftKnee
  {
   OFFSET 0.000000 -41.759727 0.000113
   CHANNELS 3 Yrotation Xrotation Zrotation
   JOINT LeftAnkle
   {
    OFFSET 0.000000 -40.728748 0.000159
    CHANNELS 3 Yrotation Xrotation Zrotation
    JOINT LeftToe
    {
     OFFSET 0.000000 -6.515296 14.732841
     CHANNELS 3 Yrotation Xrotation Zrotation
     End Site
     {
      OFFSET 0.000000 -1.502839 6.412115
     }
    }
   }
  }
 }
}
MOTION
Frames: 14
Frame Time: 0.016667
0.000000 88.822259 0.000000 0.000000 -5.826342 0.000000 0.000000 11.116423 0.000000 0.000000 -5.290081 0.000000 0.000000 0.000000 0.000000 0.000000 0.000000 0.000000 0.000000 12.665069 0.000000 0.000000 0.575450 0.000000 0.000000 0.000000 0.000000 0.000000 0.000000 0.000000 2.337306 0.000000 0.000000 -2.337306 0.000000 0.000000 0.000000 0.000000 0.000000 0.000000 0.000000 0.000000 -2.337306 0.000000 0.000000 2.337306 0.000000 0.000000 0.000000 8.578828 0.000000 0.000000 1.905768 0.000000 0.000000 -4.658254 0.000000 0.000000 0.000000 0.000000 0.000000 8.578828 0.000000 0.000000 1.905768 0.000000 0.000000 -4.658254 0.000000 0.000000 0.000000 0.000000
3.372136 90.418634 9.998469 -32.882202 -3.914400 -0.280805 3.283886 -4.606266 -0.543329 1.725267 -1.864135 -0.166923 1.725267 -1.864135 -0.166923 1.293327 -1.398585 -0.119918 3.014435 22.654545 -0.265867 5.509252 5.948062 -1.295578 2.243369 21.188657 13.527036 34.026211 -2.003915 82.197656 28.645662 2.938201 0.645240 1.995885 -2.057296 -13.331432 -23.895960 24.478810 -19.901623 -39.017400 19.361298 -80.511845 -47.578665 -24.690174 16.452514 8.989118 4.795411 12.397548 -2.024423 2.802100 0.519772 4.444102 4.925689 -2.107744 0.108393 -3.854997 1.038117 -0.092845 0.105745 -0.025950 -35.773967 13.780380 -0.497223 38.122693 0.627833 -8.883718 8.756933 -7.020545 -0.222193 0.304893 0.060968 0.125517
3.388622 90.414630 9.966091 -33.036742 -3.956538 -0.293870 3.375986 -4.517652 -0.546437 1.727034 -1.851978 -0.164999 1.727034 -1.851978 -0.164999 1.294663 -1.389463 -0.118504 3.005125 22.609161 -0.270038 5.494639 5.863692 -1.302444 2.284864 21.247411 13.547236 34.022919 -1.973040 82.067386 29.139977 2.005458 0.558710 1.930508 -2.114199 -13.285729 -23.909487 24.543021 -19.885004 -39.028588 19.344734 -80.497636 -47.710242 -24.610379 16.400492 8.980387 4.841961 12.389676 -1.986449 2.777028 0.548984 4.411551 4.982613 -2.105291 0.157852 -3.853586 1.005188 -0.080971 0.100064 -0.014521 -35.808259 13.759868 -0.531518 38.200033 0.702783 -8.865222 8.980360 -7.045738 -0.199049 0.222476 0.045592 0.093008
3.414884 90.412134 9.933808 -33.146530 -3.961394 -0.305394 3.420737 -4.467748 -0.554164 1.728434 -1.841697 -0.163909 1.728434 -1.841697 -0.163909 1.295720 -1.381749 -0.117712 2.998985 22.569048 -0.272593 5.485188 5.789141 -1.307033 2.316385 21.311660 13.555062 34.027977 -1.956132 81.960350 29.608779 1.160855 0.454475 1.879400 -2.152255 -13.219684 -23.919387 24.592891 -19.872849 -38.998308 19.328220 -80.479498 -47.817906 -24.529735 16.342330 8.950609 4.860643 12.385190 -2.012899 2.722919 0.549761 4.415691 5.025692 -2.084954 0.185911 -3.843837 0.977979 -0.062619 0.091162 -0.002374 -35.826871 13.719131 -0.528800 38.291844 0.770863 -8.857244 9.081455 -7.064727 -0.180554 0.168674 0.037869 0.072643
3.440370 90.409284 9.915159 -33.274219 -3.955470 -0.328573 3.481135 -4.417204 -0.553514 1.730142 -1.841529 -0.163996 1.730142 -1.841529 -0.163996 1.297001 -1.381624 -0.117773 2.998158 22.538359 -0.271377 5.484078 5.732095 -1.305871 2.335765 21.356327 13.557232 34.027616 -1.945555 81.901902 29.991684 0.555242 0.383505 1.838131 -2.176639 -13.182521 -23.920593 24.617277 -19.862316 -38.972646 19.355028 -80.477225 -47.972727 -24.493925 16.319358 8.929603 4.863491 12.409374 -2.027604 2.665484 0.565280 4.427708 5.064398 -2.065903 0.220961 -3.836179 0.952577 -0.051689 0.081936 0.005709 -35.718521 13.697796 -0.509691 38.353142 0.818664 -8.823233 8.992417 -7.085420 -0.176912 0.141955 0.037176 0.064696
3.452646 90.405220 9.914357 -33.457442 -4.008298 -0.347867 3.591208 -4.323714 -0.551697 1.734127 -1.841163 -0.164993 1.734127 -1.841163 -0.164993 1.299986 -1.381354 -0.118510 3.003200 22.521398 -0.268902 5.492896 5.700684 -1.303469 2.343550 21.377529 13.562808 33.990417 -1.937346 81.869104 30.267360 0.257606 0.359323 1.799461 -2.186224 -13.146567 -23.922574 24.638893 -19.854274 -38.960659 19.382295 -80.489436 -48.120312 -24.493331 16.346213 8.903560 4.830569 12.441954 -1.957633 2.676521 0.596109 4.428304 5.109607 -2.080762 0.229589 -3.847883 0.939105 -0.027192 0.077123 0.020123 -35.449689 13.746440 -0.520903 38.265027 0.822617 -8.815525 9.054382 -7.092740 -0.137087 0.068112 0.028353 0.035816
3.462689 90.401596 9.914865 -33.631391 -4.047844 -0.365224 3.689001 -4.259106 -0.552308 1.739662 -1.839844 -0.167983 1.739662 -1.839844 -0.167983 1.304129 -1.380374 -0.120739 3.012933 22.517830 -0.265139 5.509518 5.694238 -1.299470 2.346585 21.404325 13.571353 33.933429 -1.962169 81.834556 30.422090 0.228501 0.368484 1.769582 -2.181092 -13.110601 -23.929809 24.663702 -19.847898 -38.972841 19.397653 -80.516784 -48.279456 -24.599572 16.444300 8.891951 4.814551 12.470833 -1.899443 2.671359 0.629052 4.396932 5.163870 -2.093306 0.261157 -3.864309 0.914465 -0.000509 0.070351 0.035994 -35.151449 13.789336 -0.515496 38.179682 0.827505 -8.815817 9.113276 -7.093473 -0.101872 0.000312 0.016119 0.009496
3.469908 90.398262 9.914759 -33.811565 -4.066927 -0.380880 3.786717 -4.206049 -0.553429 1.746656 -1.841492 -0.171803 1.746656 -1.841492 -0.171803 1.309361 -1.381624 -0.123577 3.025537 22.522164 -0.263527 5.531721 5.702665 -1.299803 2.345084 21.436976 13.577677 33.851663 -2.023983 81.788684 30.477457 0.391782 0.431060 1.744319 -2.161222 -13.093588 -23.941336 24.681198 -19.850630 -39.004736 19.399881 -80.543201 -48.393625 -24.744657 16.560305 8.887255 4.797819 12.490290 -1.861182 2.632807 0.664008 4.368671 5.245689 -2.108315 0.300765 -3.894866 0.884708 0.027695 0.062811 0.054066 -34.821101 13.811776 -0.506833 38.096804 0.832210 -8.787685 9.111970 -7.100207 -0.081516 -0.058433 0.011902 -0.013489
3.475642 90.392700 9.916213 -33.979502 -4.050591 -0.380856 3.875089 -4.169981 -0.573996 1.752749 -1.849837 -0.176174 1.752749 -1.849837 -0.176174 1.313914 -1.387897 -0.126814 3.039923 22.531170 -0.259045 5.556247 5.719693 -1.295248 2.345217 21.486542 13.589433 33.785224 -2.111676 81.732665 30.476709 0.587726 0.506246 1.725925 -2.150494 -13.100933 -23.958817 24.703672 -19.863487 -39.040855 19.376185 -80.563589 -48.396983 -24.843034 16.621918 8.888986 4.776065 12.511748 -1.817635 2.533857 0.702673 4.319398 5.378433 -2.143757 0.319092 -3.950984 0.851547 0.067548 0.055469 0.078843 -34.465350 13.791903 -0.506228 37.918781 0.832966 -8.746487 9.243587 -7.147449 -0.058184 -0.131301 0.032309 -0.045000
3.484395 90.384453 9.923954 -34.159381 -4.021972 -0.367371 3.977376 -4.129671 -0.613173 1.758029 -1.860391 -0.179714 1.758029 -1.860391 -0.179714 1.317859 -1.395824 -0.129422 3.052432 22.536809 -0.252428 5.576885 5.730300 -1.286473 2.344635 21.530339 13.603204 33.788908 -2.204062 81.685418 30.443784 0.695294 0.534488 1.718846 -2.153683 -13.111943 -23.986321 24.733229 -19.881654 -39.044049 19.321792 -80.547333 -48.270589 -24.846411 16.579634 8.887859 4.733824 12.525372 -1.730642 2.394033 0.749659 4.246212 5.571406 -2.208781 0.308869 -4.039464 0.820333 0.129887 0.049304 0.113989 -34.063293 13.751711 -0.533497 37.775714 0.825361 -8.676447 9.305984 -7.206182 -0.007361 -0.257783 0.066862 -0.103184
3.494182 90.375830 9.948234 -34.411237 -4.054229 -0.320588 4.156477 -4.022346 -0.676492 1.762054 -1.866140 -0.182193 1.762054 -1.866140 -0.182193 1.320868 -1.400144 -0.131252 3.059951 22.534935 -0.247986 5.589285 5.726886 -1.280577 2.348770 21.571233 13.618650 33.866566 -2.299766 81.650442 30.389191 0.693998 0.501255 1.716681 -2.158698 -13.108055 -24.019613 24.755938 -19.901609 -39.027815 19.256085 -80.505354 -48.087840 -24.818432 16.467788 8.881778 4.687680 12.528802 -1.548307 2.290210 0.774831 4.105271 5.811819 -2.289741 0.276465 -4.156175 0.775716 0.247326 0.046230 0.171434 -33.566740 13.725482 -0.654190 37.624767 0.822461 -8.546784 9.451812 -7.292943 0.075610 -0.514679 0.121934 -0.220627
3.502153 90.367716 9.975354 -34.685331 -4.109856 -0.288148 4.359883 -3.892166 -0.712306 1.764196 -1.864233 -0.185436 1.764196 -1.864233 -0.185436 1.322465 -1.398724 -0.133683 3.062028 22.527436 -0.248149 5.593254 5.713052 -1.281746 2.369611 21.621746 13.634640 34.021867 -2.395539 81.621104 30.326375 0.636677 0.429590 1.717026 -2.171374 -13.110846 -24.057022 24.773856 -19.927147 -39.040613 19.191793 -80.445678 -47.891998 -24.793271 16.346657 8.868940 4.649068 12.534134 -1.377396 2.170564 0.812239 3.922727 6.132021 -2.361275 0.281409 -4.304429 0.720839 0.362932 0.031888 0.227228 -33.040370 13.699355 -0.748500 37.390864 0.883974 -8.424384 9.681055 -7.391917 0.147198 -0.753583 0.151742 -0.329256
3.506367 90.359354 10.008195 -35.021877 -4.215082 -0.264856 4.633000 -3.710872 -0.725981 1.764264 -1.856046 -0.190979 1.764264 -1.856046 -0.190979 1.322503 -1.392599 -0.137864 3.059717 22.512512 -0.250365 5.590037 5.685377 -1.285737 2.408254 21.693021 13.660982 34.198773 -2.502244 81.573976 30.254805 0.590042 0.334986 1.721554 -2.174633 -13.095432 -24.095314 24.815376 -19.956940 -39.122121 19.149659 -80.350807 -47.716841 -24.749881 16.257587 8.823512 4.564456 12.531953 -1.169317 2.042289 0.876829 3.730645 6.568762 -2.458242 0.271268 -4.496714 0.673269 0.494181 0.002590 0.287455 -32.559717 13.689535 -0.852149 37.211302 1.026926 -8.300275 9.964387 -7.502893 0.213686 -1.020493 0.151181 -0.448577
3.514598 90.347882 10.013727 -35.328903 -4.257555 -0.254102 4.885689 -3.581313 -0.729347 1.764078 -1.845311 -0.196685 1.764078 -1.845311 -0.196685 1.322351 -1.384565 -0.142175 3.053117 22.492617 -0.250626 5.578664 5.648222 -1.285243 2.449003 21.772761 13.682161 34.383960 -2.614355 81.506378 30.177873 0.595339 0.243281 1.731704 -2.171289 -13.074033 -24.146632 24.857970 -19.991062 -39.283012 19.128010 -80.261730 -47.606356 -24.716020 16.235609 8.761608 4.461563 12.543479 -0.939973 1.781541 0.988572 3.475385 7.115053 -2.581228 0.230783 -4.707293 0.609534 0.653663 -0.048634 0.360028 -32.341046 13.573034 -0.914998 37.237897 1.288875 -8.179131 10.224521 -7.665640 0.263199 -1.261311 0.159336 -0.558724
